Coordinates
version=1
nRows=54
nColumns=12
inDegrees=yes

Units are S.I. units (second, meters, Newtons, ...)
Angles are in degrees

endheader
time	SC_y	SC_z	SC_x	AC_y	AC_z	AC_x	GH_y	GH_z	GH_yy	EL_x	PS_y
       0.0              -32.58          29.56          31.39          42.71          2.811         -17.94         -2.721          63.93         -117.6          32.12          154.6
   0.04411              -32.59          29.56          31.39          42.71          2.811         -17.94         -2.717          63.93         -117.6          32.12          154.6
   0.08822              -32.59          29.56          31.39          42.72          2.812         -17.94         -2.712          63.92         -117.5          32.12          154.6
    0.1323               -32.6          29.56          31.39          42.72          2.813         -17.94         -2.708          63.91         -117.5          32.11          154.6
    0.1764               -32.6          29.56          31.38          42.72          2.814         -17.94         -2.703           63.9         -117.4          32.11          154.6
    0.2205              -32.61          29.56          31.38          42.73          2.815         -17.94         -2.698          63.89         -117.4          32.11          154.6
    0.2646              -32.61          29.56          31.38          42.73          2.816         -17.94         -2.692          63.88         -117.3          32.11          154.6
    0.3088              -32.62          29.57          31.37          42.73          2.817         -17.94         -2.686          63.87         -117.2          32.11          154.6
    0.3529              -32.62          29.57          31.37          42.74          2.818         -17.94          -2.68          63.86         -117.2           32.1          154.6
     0.397              -32.63          29.57          31.37          42.74          2.819         -17.94         -2.673          63.84         -117.1           32.1          154.6
    0.4411              -32.64          29.57          31.36          42.75           2.82         -17.93         -2.666          63.83         -117.0           32.1          154.6
    0.4852              -32.64          29.58          31.36          42.75          2.822         -17.93         -2.658          63.81         -117.0          32.09          154.6
    0.5293              -32.65          29.58          31.35          42.76          2.823         -17.93         -2.649           63.8         -116.9          32.09          154.6
    0.5734              -32.66          29.58          31.35          42.77          2.825         -17.93          -2.64          63.78         -116.8          32.09          154.6
    0.6175              -32.67          29.59          31.34          42.77          2.827         -17.93          -2.63          63.76         -116.7          32.08          154.6
    0.6616              -32.68          29.59          31.34          42.78          2.829         -17.93          -2.62          63.74         -116.6          32.08          154.6
    0.7057              -32.69          29.59          31.33          42.79          2.831         -17.92         -2.608          63.72         -116.4          32.07          154.5
    0.7498               -32.7           29.6          31.32           42.8          2.833         -17.92         -2.595          63.69         -116.3          32.07          154.5
    0.7939              -32.72           29.6          31.32          42.81          2.835         -17.92         -2.581          63.66         -116.2          32.06          154.5
    0.8381              -32.73          29.61          31.31          42.82          2.838         -17.92         -2.566          63.63         -116.0          32.05          154.5
    0.8822              -32.75          29.61           31.3          42.83          2.841         -17.91         -2.549           63.6         -115.8          32.05          154.5
    0.9263              -32.77          29.62          31.29          42.84          2.844         -17.91         -2.531          63.57         -115.7          32.04          154.5
    0.9704              -32.79          29.63          31.28          42.85          2.848          -17.9         -2.511          63.53         -115.5          32.03          154.5
     1.014              -32.81          29.63          31.27          42.87          2.852          -17.9         -2.488          63.48         -115.2          32.02          154.5
     1.059              -32.83          29.64          31.25          42.89          2.856          -17.9         -2.463          63.43         -115.0          32.01          154.5
     1.103              -32.86          29.65          31.24          42.91          2.861         -17.89         -2.435          63.38         -114.7           32.0          154.5
     1.147              -32.89          29.66          31.22          42.93          2.866         -17.88         -2.404          63.32         -114.4          31.98          154.5
     1.191              -32.92          29.67           31.2          42.95          2.873         -17.88         -2.369          63.25         -114.0          31.97          154.4
     1.235              -32.96          29.69          31.18          42.98           2.88         -17.87         -2.329          63.17         -113.6          31.95          154.4
     1.279               -33.0           29.7          31.16          43.01          2.888         -17.86         -2.284          63.09         -113.1          31.93          154.4
     1.323              -33.05          29.72          31.13          43.05          2.897         -17.85         -2.233          62.99         -112.6          31.91          154.4
     1.367              -33.11          29.74           31.1          43.09          2.907         -17.84         -2.174          62.87         -112.0          31.88          154.4
     1.411              -33.18          29.76          31.06          43.13          2.919         -17.83         -2.105          62.74         -111.3          31.86          154.3
     1.456              -33.25          29.79          31.02          43.19          2.933         -17.81         -2.026          62.59         -110.5          31.82          154.3
       1.5              -33.34          29.82          30.97          43.25          2.949         -17.79         -1.933          62.41         -109.6          31.78          154.2
     1.544              -33.45          29.86          30.91          43.33          2.968         -17.77         -1.824          62.19         -108.5          31.73          154.2
     1.588              -33.57           29.9          30.84          43.42          2.991         -17.75         -1.694          61.94         -107.1          31.68          154.1
     1.632              -33.72          29.95          30.75          43.52          3.019         -17.72         -1.538          61.64         -105.6          31.61          154.1
     1.676               -33.9          30.02          30.65          43.65          3.052         -17.68          -1.35          61.27         -103.6          31.53          154.0
      1.72              -34.12          30.09          30.53          43.81          3.092         -17.64          -1.12          60.83         -101.3          31.43          153.9
     1.764               -34.4          30.19          30.37          44.01          3.142         -17.58        -0.8356          60.28          -98.4          31.31          153.8
     1.808              -34.74          30.31          30.18          44.25          3.205         -17.52        -0.4813          59.59          -94.8          31.16          153.6
     1.853              -35.17          30.46          29.94          44.56          3.283         -17.43       -0.03509          58.72         -90.26          30.96          153.4
     1.897              -35.71          30.65          29.63          44.95          3.383         -17.32         0.5322          57.62         -84.48          30.72          153.1
     1.941              -36.41           30.9          29.24          45.45          3.511         -17.18          1.258          56.21         -77.09          30.41          152.8
     1.985              -37.31          31.21          28.74          46.09          3.674          -17.0           2.19           54.4         -67.61          30.01          152.4
     2.029              -38.46          31.61          28.09          46.91          3.884         -16.78           3.38          52.09         -55.49          29.49          151.9
     2.073               -39.9          32.12          27.28          47.93          4.147         -16.49          4.877          49.19         -40.26          28.85          151.2
     2.117              -41.65          32.73           26.3          49.19          4.468         -16.14          6.701          45.65         -21.69          28.06          150.4
     2.161              -43.69          33.44          25.15          50.64           4.84         -15.74          8.815          41.55        -0.1771          27.15          149.4
     2.205              -45.89          34.21          23.92          52.22          5.242          -15.3           11.1           37.1          23.12          26.17          148.4
      2.25              -48.09          34.98          22.68          53.79          5.645         -14.86          13.39          32.66          46.42          25.18          147.4
     2.294              -50.13           35.7          21.54          55.24          6.017         -14.46          15.51          28.56          67.94          24.27          146.4
     2.338              -51.88          36.31          20.55           56.5          6.337         -14.11          17.33          25.02           86.5          23.49          145.6
